<svg id="Capa_1" enable-background="new 0 0 512 512" height="512" viewBox="0 0 512 512" width="512" xmlns="http://www.w3.org/2000/svg"><g><g><path d="m478.968 57.806h-280.774-24.774-140.388c-18.217 0-33.032 14.815-33.032 33.033v330.323c0 18.217 14.815 33.032 33.032 33.032h140.387 24.774 280.774c18.217 0 33.032-14.815 33.032-33.032v-330.323c.001-18.218-14.814-33.033-33.031-33.033zm16.516 33.033v49.548h-57.806c-4.558 0-8.258-3.708-8.258-8.258v-57.806h49.548c9.108 0 16.516 7.407 16.516 16.516zm-338.581 115.613c-13.436 0-25.278 6.549-32.818 16.516h-107.569v-49.548h198.194v49.548h-24.989c-7.54-9.968-19.382-16.516-32.818-16.516zm24.774 41.29c0 13.659-11.115 24.774-24.774 24.774s-24.774-11.115-24.774-24.774 11.115-24.774 24.774-24.774 24.774 11.115 24.774 24.774zm-123.871-140.387h115.613v16.516h-115.613zm132.129 33.032v-33.032h24.774v49.548h-198.193v-49.548h24.774v33.032zm41.291-16.516h33.032v165.161h-33.032zm0 181.677h49.548v-99.097h148.645v-16.516h-16.516v-33.032h-16.516v-49.548h-49.548v16.516h33.032v33.032h-16.516v33.032h-16.516v-33.032h-16.516v-66.064h-33.033v16.516h16.516v49.548h-16.516v33.032h-16.516v-82.581h-49.548v-16.515c0-6.045-1.751-11.636-4.591-16.516h186.269v57.806c0 13.659 11.115 24.774 24.774 24.774h24.774v66.065h-107.355v33.453c-41.67 4.154-74.323 39.416-74.323 82.159h-49.548zm99.097-132.129v16.516h-16.516v-16.516zm66.064 0v16.516h-16.516v-16.516zm-1.486 155.888c-.851-2.899-2.031-5.64-3.592-8.142 5.863-8.522 10.975-21.454 11.289-35.609 8.597 6.375 15.575 14.774 20.265 24.502-7.127 10.421-18.722 16.953-27.962 19.249zm-31.546 25.79c-9.109 0-16.516-7.408-16.516-16.516s7.408-16.516 16.516-16.516 16.516 7.407 16.516 16.516-7.408 16.516-16.516 16.516zm-65.264-6.772c-.479-3.188-.801-6.425-.801-9.745 0-7.68 1.387-15.03 3.807-21.892 12.395-2.337 25.237 1.239 33.396 6.152-1.42 2.593-2.568 5.343-3.254 8.299-10.182 1.884-22.932 7.4-33.148 17.186zm36.732-69.235c10.422 7.11 16.962 18.713 19.258 27.945-2.899.851-5.64 2.031-8.142 3.592-8.522-5.863-21.454-10.983-35.609-11.289 6.375-8.588 14.765-15.566 24.493-20.248zm50.424-2.767c2.345 12.404-1.239 25.245-6.144 33.404-2.593-1.42-5.351-2.577-8.308-3.262-1.891-10.174-7.424-22.924-17.21-33.148 3.196-.471 6.441-.801 9.769-.801 7.681 0 15.03 1.387 21.893 3.807zm-53.438 71.531c.851 2.899 2.023 5.64 3.592 8.142-5.871 8.531-11 21.446-11.305 35.601-8.588-6.375-15.558-14.765-20.241-24.485 7.119-10.43 18.705-16.97 27.954-19.258zm9.654 52.984c-2.345-12.412 1.23-25.237 6.152-33.404 2.601 1.42 5.351 2.577 8.316 3.262 1.899 10.157 7.457 22.9 17.251 33.131-3.221.487-6.483.818-9.827.818-7.68 0-15.03-1.387-21.892-3.807zm50.423-2.766c-10.405-7.11-16.954-18.738-19.258-27.954 2.89-.851 5.624-2.023 8.126-3.584 8.531 5.863 21.496 10.934 35.658 11.239-6.383 8.614-14.781 15.608-24.526 20.299zm37.533-59.491c0 7.68-1.387 15.03-3.807 21.892-12.395 2.345-25.237-1.239-33.396-6.152 1.42-2.593 2.568-5.343 3.254-8.299 10.182-1.891 22.933-7.399 33.148-17.193.479 3.195.801 6.432.801 9.752zm-57.806-82.16v-16.937h123.871v99.097h-49.548c-.001-42.752-32.653-78.006-74.323-82.16zm107.355-33.453v-66.065h16.516v66.065zm-445.936-148.645h140.387 24.774c9.109 0 16.516 7.407 16.516 16.516h-198.193c0-9.109 7.408-16.516 16.516-16.516zm-16.516 198.193h49.548v115.613h-49.548zm156.903 165.161h-140.387c-9.109 0-16.516-7.407-16.516-16.516v-16.516h66.065v-148.645h-66.065v-16.516h99.931c-.545 2.667-.834 5.434-.834 8.258 0 22.767 18.523 41.29 41.29 41.29s41.29-18.523 41.29-41.29c0-2.824-.289-5.591-.834-8.258h17.35v181.677c0 9.109-7.407 16.516-16.516 16.516zm305.549 0h-252.334c2.841-4.88 4.591-10.471 4.591-16.516v-66.065h51.217c7.672 37.648 41.034 66.065 80.913 66.065s73.241-28.416 80.913-66.065h51.217v66.065c-.001 9.109-7.409 16.516-16.517 16.516z"/><path d="m33.032 189.935h16.516v16.516h-16.516z"/><path d="m99.097 189.935h16.516v16.516h-16.516z"/><path d="m66.065 189.935h16.516v16.516h-16.516z"/><circle cx="41.29" cy="297.29" r="8.258"/><circle cx="41.29" cy="330.323" r="8.258"/><circle cx="41.29" cy="363.355" r="8.258"/><path d="m198.194 371.613h-99.097v49.548h99.097zm-16.517 33.032h-66.065v-16.516h66.065z"/><path d="m198.194 305.548h-99.097v49.548h99.097zm-16.517 33.033h-66.065v-16.516h66.065z"/><circle cx="156.903" cy="247.742" r="8.258"/><path d="m462.452 132.129c13.659 0 24.774-11.115 24.774-24.774s-11.115-24.774-24.774-24.774-24.774 11.115-24.774 24.774 11.115 24.774 24.774 24.774zm0-33.032c4.558 0 8.258 3.708 8.258 8.258s-3.7 8.258-8.258 8.258-8.258-3.708-8.258-8.258 3.699-8.258 8.258-8.258z"/></g></g></svg>