<svg id="Capa_1" enable-background="new 0 0 512 512" height="512" viewBox="0 0 512 512" width="512" xmlns="http://www.w3.org/2000/svg"><g><path d="m403.867 411.994h-403.867v-387.872c0-8.834 7.161-15.995 15.995-15.995h387.872z" fill="#30579d"/><path d="m380.435 8.127h23.432v403.867h-23.432z" fill="#26457d"/><path d="m48.048 283.968v-216.284c0-6.356 4.617-11.509 10.311-11.509h287.147c5.695 0 10.311 5.153 10.311 11.509v216.284c0 6.356-4.617 11.509-10.311 11.509h-287.146c-5.695-.001-10.312-5.153-10.312-11.509z" fill="#80b4fb"/><path d="m345.507 56.176h-23.72c5.695 0 10.311 5.153 10.311 11.509v216.284c0 6.356-4.617 11.509-10.311 11.509h23.72c5.695 0 10.311-5.153 10.311-11.509v-216.285c0-6.356-4.616-11.508-10.311-11.508z" fill="#61a2f9"/><path d="m403.867 8.127 64.936 71.515c2.673 2.943 4.153 6.777 4.153 10.752v321.908l-69.09-.309v-403.866z" fill="#30579d"/><path d="m508.719 301.447-35.762 46.848v-173.242l34.372 34.451c2.992 2.999 4.672 7.061 4.672 11.297v70.94c-.001 3.508-1.154 6.918-3.282 9.706z" fill="#26457d"/><path d="m244.489 369.523h-85.112c-9.358 0-16.943-7.586-16.943-16.943 0-9.358 7.586-16.943 16.943-16.943h85.112c9.358 0 16.943 7.586 16.943 16.943.001 9.357-7.585 16.943-16.943 16.943z" fill="#dd636e"/><path d="m244.489 335.636h-21.356c9.358 0 16.944 7.586 16.944 16.943 0 9.358-7.586 16.944-16.944 16.944h21.356c9.358 0 16.943-7.586 16.943-16.944.001-9.358-7.585-16.943-16.943-16.943z" fill="#da4a54"/><g><g><path d="m313.566 360.305h-16.322c-4.268 0-7.726-3.459-7.726-7.726s3.459-7.726 7.726-7.726h16.322c4.268 0 7.726 3.459 7.726 7.726s-3.458 7.726-7.726 7.726z" fill="#26457d"/></g><g><path d="m106.622 360.305h-16.322c-4.267 0-7.726-3.459-7.726-7.726s3.459-7.726 7.726-7.726h16.322c4.267 0 7.726 3.459 7.726 7.726s-3.459 7.726-7.726 7.726z" fill="#26457d"/></g></g><path d="m403.867 503.873h-387.872c-8.834 0-15.995-7.161-15.995-15.995v-75.884h403.867z" fill="#beb9dd"/><path d="m380.435 411.994h23.432v91.879h-23.432z" fill="#a7a2d3"/><path d="m403.867 503.873h53.095c8.834 0 15.995-7.161 15.995-15.995v-75.884h-69.09z" fill="#4073c8"/><g><path d="m438.412 291.646c-4.268 0-7.726-3.459-7.726-7.726v-147.41c0-4.268 3.459-7.726 7.726-7.726s7.726 3.459 7.726 7.726v147.41c0 4.267-3.458 7.726-7.726 7.726z" fill="#26457d"/></g><path d="m325.367 477.099h-246.867c-3.718 0-6.731-3.014-6.731-6.731v-24.868c0-3.718 3.014-6.731 6.731-6.731h246.867c3.718 0 6.731 3.014 6.731 6.731v24.868c0 3.717-3.013 6.731-6.731 6.731z" fill="#f9f6f9"/><path d="m325.367 438.768h-21.114c3.718 0 6.731 3.014 6.731 6.731v24.868c0 3.718-3.014 6.731-6.731 6.731h21.114c3.718 0 6.731-3.014 6.731-6.731v-24.868c0-3.717-3.013-6.731-6.731-6.731z" fill="#dddaec"/></g></svg>