<svg enable-background="new 0 0 64 64" height="512" viewBox="0 0 64 64" width="512" xmlns="http://www.w3.org/2000/svg"><g id="Icons"><g><g><g><path d="m20 56h-12v-16.343c0-1.061.421-2.078 1.172-2.828l.828-.829h8l.828.828c.75.75 1.172 1.768 1.172 2.828z" fill="#c80a50"/></g><g><path d="m8 55h12v1h-12z" fill="#a00028"/></g><g><path d="m18 36h-8c-1.105 0-2-.895-2-2 0-1.105.895-2 2-2h8c1.105 0 2 .895 2 2 0 1.105-.895 2-2 2z" fill="#c80a50"/></g><g><path d="m18.823 36.823-.823-.823h-8l-.823.823c.251.113.53.177.823.177h8c.293 0 .572-.064.823-.177z" fill="#a00028"/></g><g><path d="m12 12h4v20h-4z" fill="#00a0c8"/></g><g><path d="m16 60h-4c-2.209 0-4-1.791-4-4h12c0 2.209-1.791 4-4 4z" fill="#0a5078"/></g><g><path d="m12 12-1.707-1.707c-.188-.188-.293-.442-.293-.707v-4.586c0-.552.448-1 1-1h6c.552 0 1 .448 1 1v4.586c0 .265-.105.52-.293.707l-1.707 1.707z" fill="#0a5078"/></g><g><path d="m11 40c-.552 0-1 .448-1 1v15h2v-15c0-.552-.448-1-1-1z" fill="#a00028"/></g><g><path d="m17 40c-.552 0-1 .448-1 1v15h2v-15c0-.552-.448-1-1-1z" fill="#a00028"/></g></g><g><path d="m54 12h-28c-1.105 0-2 .895-2 2v44c0 1.104.895 2 2 2h28c1.105 0 2-.896 2-2v-44c0-1.105-.895-2-2-2zm-27 46c-.552 0-1-.448-1-1s.448-1 1-1 1 .448 1 1-.448 1-1 1zm0-42c-.552 0-1-.448-1-1s.448-1 1-1 1 .448 1 1-.448 1-1 1zm26 42c-.552 0-1-.448-1-1s.448-1 1-1 1 .448 1 1-.448 1-1 1zm0-42c-.552 0-1-.448-1-1s.448-1 1-1 1 .448 1 1-.448 1-1 1z" fill="#0a5078"/></g><g><circle cx="42" cy="55" fill="#00325a" r="2"/></g><g><circle cx="48" cy="55" fill="#00325a" r="2"/></g><g><path d="m45 30h-10c-.552 0-1-.448-1-1v-10c0-.552.448-1 1-1h10c.552 0 1 .448 1 1v10c0 .552-.448 1-1 1z" fill="#00325a"/></g><g><g><path d="m26 30c0-.552-.448-1-1-1h-1v6h1c.552 0 1-.448 1-1z" fill="#00325a"/></g><g><path d="m24 27h3c.552 0 1-.448 1-1v-6c0-.552-.448-1-1-1h-3z" fill="#00325a"/></g></g><g><path d="m50 49h-20c-1.105 0-2-.895-2-2v-2c0-1.105.895-2 2-2h20c1.105 0 2 .895 2 2v2c0 1.105-.895 2-2 2z" fill="#00325a"/></g><g><path d="m50 41h-20c-1.105 0-2-.895-2-2v-2c0-1.105.895-2 2-2h20c1.105 0 2 .895 2 2v2c0 1.105-.895 2-2 2z" fill="#00325a"/></g><g><path d="m54 12h-12v2h-1c-.552 0-1 .448-1 1s.448 1 1 1h1v3h-1c-.552 0-1 .448-1 1s.448 1 1 1h1c0 1.104.895 2 2 2v1c0 .552.448 1 1 1s1-.448 1-1v-1h3v1c0 .552.448 1 1 1s1-.448 1-1v-1h3v1c0 .552.448 1 1 1s1-.448 1-1v-10c0-1.105-.895-2-2-2zm-1 4c-.552 0-1-.448-1-1s.448-1 1-1 1 .448 1 1-.448 1-1 1z" fill="#00325a"/></g><g><g><g><path d="m44 21c-.551 0-1-.448-1-1v-12c0-.552.449-1 1-1h12c.551 0 1 .448 1 1v12c0 .552-.449 1-1 1z" fill="#00325a"/></g><g><path d="m56 8v12h-12v-12zm0-2h-12c-1.105 0-2 .895-2 2v12c0 1.105.895 2 2 2h12c1.105 0 2-.895 2-2v-12c0-1.105-.895-2-2-2z" fill="#00a0c8"/></g></g><g><path d="m46 10h8v8h-8z" fill="#0a5078"/></g><g><path d="m45 4c-.552 0-1 .448-1 1v1h2v-1c0-.552-.448-1-1-1z" fill="#fab400"/></g><g><path d="m50 4c-.552 0-1 .448-1 1v1h2v-1c0-.552-.448-1-1-1z" fill="#fab400"/></g><g><path d="m55 4c-.552 0-1 .448-1 1v1h2v-1c0-.552-.448-1-1-1z" fill="#fab400"/></g><g><path d="m45 24c-.552 0-1-.448-1-1v-1h2v1c0 .552-.448 1-1 1z" fill="#fab400"/></g><g><path d="m50 24c-.552 0-1-.448-1-1v-1h2v1c0 .552-.448 1-1 1z" fill="#fab400"/></g><g><path d="m55 24c-.552 0-1-.448-1-1v-1h2v1c0 .552-.448 1-1 1z" fill="#fab400"/></g><g><path d="m40 19c0 .552.448 1 1 1h1v-2h-1c-.552 0-1 .448-1 1z" fill="#fab400"/></g><g><path d="m40 14c0 .552.448 1 1 1h1v-2h-1c-.552 0-1 .448-1 1z" fill="#fab400"/></g><g><path d="m40 9c0 .552.448 1 1 1h1v-2h-1c-.552 0-1 .448-1 1z" fill="#fab400"/></g><g><path d="m60 19c0 .552-.448 1-1 1h-1v-2h1c.552 0 1 .448 1 1z" fill="#fab400"/></g><g><path d="m60 14c0 .552-.448 1-1 1h-1v-2h1c.552 0 1 .448 1 1z" fill="#fab400"/></g><g><path d="m60 9c0 .552-.448 1-1 1h-1v-2h1c.552 0 1 .448 1 1z" fill="#fab400"/></g></g><g><path d="m50 48h-20c-1.105 0-2-.895-2-2v-2c0-1.105.895-2 2-2h20c1.105 0 2 .895 2 2v2c0 1.105-.895 2-2 2z" fill="#00a0c8"/></g><g><path d="m49 46h-18c-.552 0-1-.448-1-1 0-.552.448-1 1-1h18c.552 0 1 .448 1 1 0 .552-.448 1-1 1z" fill="#00648c"/></g><g><path d="m50 40h-20c-1.105 0-2-.895-2-2v-2c0-1.105.895-2 2-2h20c1.105 0 2 .895 2 2v2c0 1.105-.895 2-2 2z" fill="#00a0c8"/></g><g><path d="m49 38h-18c-.552 0-1-.448-1-1 0-.552.448-1 1-1h18c.552 0 1 .448 1 1 0 .552-.448 1-1 1z" fill="#00648c"/></g><g><path d="m27 26h-4c-.552 0-1-.448-1-1v-6c0-.552.448-1 1-1h4c.552 0 1 .448 1 1v6c0 .552-.448 1-1 1z" fill="#c80a50"/></g><g><path d="m25 34h-2c-.552 0-1-.448-1-1v-4c0-.552.448-1 1-1h2c.552 0 1 .448 1 1v4c0 .552-.448 1-1 1z" fill="#fab400"/></g><g><circle cx="42" cy="54" fill="#f0f0f0" r="2"/></g><g><circle cx="42" cy="54" fill="#c80a50" r="1"/></g><g><circle cx="48" cy="54" fill="#f0f0f0" r="2"/></g><g><circle cx="48" cy="54" fill="#c80a50" r="1"/></g></g></g></svg>