<?xml version="1.0"?>
<svg xmlns="http://www.w3.org/2000/svg" xmlns:xlink="http://www.w3.org/1999/xlink" xmlns:svgjs="http://svgjs.com/svgjs" version="1.1" width="512" height="512" x="0" y="0" viewBox="0 0 64 64" style="enable-background:new 0 0 512 512" xml:space="preserve" class=""><g><g xmlns="http://www.w3.org/2000/svg" id="fix"><circle cx="32" cy="41" r="2" fill="#0077b6" data-original="#000000" style="" class=""/><path d="m37.78 42.52 1.22-.3v-2.44l-1.22-.3a1.007 1.007 0 0 1 -.68-.59 1.019 1.019 0 0 1 .06-.9l.65-1.08-1.72-1.72-1.08.64a.989.989 0 0 1 -.9.07 1.007 1.007 0 0 1 -.59-.68l-.3-1.22h-2.44l-.3 1.22a1.007 1.007 0 0 1 -.59.68.989.989 0 0 1 -.9-.07l-1.08-.64-1.72 1.72.65 1.08a1.019 1.019 0 0 1 .06.9 1.007 1.007 0 0 1 -.68.59l-1.22.3v2.44l1.22.3a1.007 1.007 0 0 1 .68.59 1.019 1.019 0 0 1 -.06.9l-.65 1.08 1.72 1.72 1.08-.65a1.019 1.019 0 0 1 .9-.06 1.007 1.007 0 0 1 .59.68l.3 1.22h2.44l.3-1.22a1.007 1.007 0 0 1 .59-.68 1.019 1.019 0 0 1 .9.06l1.08.65 1.72-1.72-.65-1.08a1.019 1.019 0 0 1 -.06-.9 1.007 1.007 0 0 1 .68-.59zm-5.78 2.48a4 4 0 1 1 4-4 4 4 0 0 1 -4 4z" fill="#0077b6" data-original="#000000" style="" class=""/><path d="m10.14 14.99-5.35.76a7.085 7.085 0 0 0 5.21 2.25c3.15 0 6.24-1.9 7.05-4.32a1.014 1.014 0 0 1 .95-.68h28a1.014 1.014 0 0 1 .95.68c.81 2.42 3.9 4.32 7.05 4.32a7.085 7.085 0 0 0 5.21-2.25l-5.35-.76a1 1 0 0 1 -.86-.99v-6a1 1 0 0 1 .86-.99l5.35-.76a7.085 7.085 0 0 0 -5.21-2.25 7.831 7.831 0 0 0 -7.07 4.38 1.016 1.016 0 0 1 -.93.62h-28a1.016 1.016 0 0 1 -.93-.62 7.831 7.831 0 0 0 -7.07-4.38 7.085 7.085 0 0 0 -5.21 2.25l5.35.76a1 1 0 0 1 .86.99v6a1 1 0 0 1 -.86.99z" fill="#0077b6" data-original="#000000" style="" class=""/><path d="m55.86 52.02-7.86.88v4.2l7.86.88 4.14-1.66v-2.64z" fill="#0077b6" data-original="#000000" style="" class=""/><path d="m22 54h24v2h-24z" fill="#0077b6" data-original="#000000" style="" class=""/><path d="m17.29 51.71-.7-.71h-8.57a4.02 4.02 0 1 0 0 8.04h.01l8.55-.04.71-.71a1.024 1.024 0 0 1 .71-.29.991.991 0 0 1 .55.17l1.45.96v-8.26l-1.45.96a1 1 0 0 1 -1.26-.12z" fill="#0077b6" data-original="#000000" style="" class=""/><path d="m43 20v2h1a1 1 0 0 1 1 1v4a1 1 0 0 1 -1 1h-4a1 1 0 0 1 -1-1v-1h-2v1a1 1 0 0 1 -1 1h-8a1 1 0 0 1 -1-1v-1h-2v1a1 1 0 0 1 -1 1h-4a1 1 0 0 1 -1-1v-4a1 1 0 0 1 1-1h1v-2h-2v-2h6v2h-2v2h1a1 1 0 0 1 1 1v1h2.1a5 5 0 0 1 9.8 0h2.1v-1a1 1 0 0 1 1-1h1v-2h-2v-2h6v2z" fill="#0077b6" data-original="#000000" style="" class=""/><path d="m58 41v-17a1 1 0 0 0 -1-1h-10v2h9v15h-15v2h16a1 1 0 0 0 1-1z" fill="#0077b6" data-original="#000000" style="" class=""/><path d="m8 25h9v-2h-10a1 1 0 0 0 -1 1v17a1 1 0 0 0 1 1h16v-2h-15z" fill="#0077b6" data-original="#000000" style="" class=""/></g></g></svg>
