<svg id="Capa_1" enable-background="new 0 0 512 512" height="512" viewBox="0 0 512 512" width="512" xmlns="http://www.w3.org/2000/svg"><g><g id="Page-1_77_"><g id="_x30_78---CPU-Fan"><path id="Shape_449_" d="m128.07 247.467c4.713 0 8.533-3.821 8.533-8.533v-17.067h17.067c4.713 0 8.533-3.821 8.533-8.533s-3.821-8.533-8.533-8.533h-25.6c-4.713 0-8.533 3.82-8.533 8.533v25.6c-.001 4.712 3.82 8.533 8.533 8.533z"/><path id="Shape_448_" d="m349.936 0c-64.654.078-123.098 38.516-148.779 97.852-5.865-9.911-17.641-14.666-28.743-11.608-11.103 3.058-18.782 13.173-18.745 24.689v25.6h-17.067v-25.6c0-14.138-11.462-25.6-25.6-25.6s-25.6 11.462-25.6 25.6v25.6c-18.851 0-34.133 15.282-34.133 34.133h-25.6c-14.138 0-25.6 11.462-25.6 25.6s11.462 25.6 25.6 25.6h25.6v17.067h-25.6c-14.138 0-25.6 11.462-25.6 25.6s11.462 25.6 25.6 25.6h25.6v17.067h-25.6c-14.138 0-25.6 11.462-25.6 25.6s11.462 25.6 25.6 25.6h25.6v17.067h-25.6c-14.138 0-25.6 11.462-25.6 25.6s11.462 25.6 25.6 25.6h25.6c0 18.851 15.282 34.133 34.133 34.133v25.6c0 14.138 11.462 25.6 25.6 25.6s25.6-11.461 25.6-25.6v-25.6h17.067v25.6c0 14.138 11.462 25.6 25.6 25.6s25.6-11.461 25.6-25.6v-25.6h17.067v25.6c0 14.138 11.462 25.6 25.6 25.6s25.6-11.461 25.6-25.6v-25.6h17.067v25.6c0 14.138 11.462 25.6 25.6 25.6s25.6-11.461 25.6-25.6v-25.6c18.851 0 34.133-15.282 34.133-34.133h25.6c14.138 0 25.6-11.462 25.6-25.6s-11.462-25.6-25.6-25.6h-25.6v-17.067h25.6c11.516.037 21.631-7.642 24.689-18.745s-1.697-22.878-11.608-28.743c70.504-30.536 109.895-106.365 94.339-181.606s-81.787-129.232-158.62-129.306zm-25.6 322.048v87.552h-221.866v-221.867h87.561c11.146 69.036 65.27 123.164 134.305 134.315zm-153.6-211.115c0-4.713 3.821-8.533 8.533-8.533s8.533 3.821 8.533 8.533v25.6h-17.067v-25.6zm-68.266 0c0-4.713 3.821-8.533 8.533-8.533 4.713 0 8.533 3.821 8.533 8.533v25.6h-17.066zm-76.8 93.867c-4.713 0-8.533-3.821-8.533-8.533s3.821-8.533 8.533-8.533h25.6v17.066zm0 68.267c-4.713 0-8.533-3.82-8.533-8.533s3.82-8.534 8.533-8.534h25.6v17.067zm0 68.266c-4.713 0-8.533-3.82-8.533-8.533s3.821-8.533 8.533-8.533h25.6v17.067h-25.6zm0 68.267c-4.713 0-8.533-3.821-8.533-8.533s3.821-8.533 8.533-8.533h25.6v17.066zm93.866 76.8c0 4.713-3.821 8.533-8.533 8.533-4.713 0-8.533-3.82-8.533-8.533v-25.6h17.067v25.6zm68.267 0c0 4.713-3.821 8.533-8.533 8.533s-8.533-3.82-8.533-8.533v-25.6h17.067v25.6zm68.267 0c0 4.713-3.821 8.533-8.533 8.533-4.713 0-8.533-3.82-8.533-8.533v-25.6h17.067v25.6zm68.266 0c0 4.713-3.821 8.533-8.533 8.533-4.713 0-8.533-3.82-8.533-8.533v-25.6h17.067v25.6zm34.134-59.733c0 9.426-7.641 17.067-17.067 17.067h-256c-9.426 0-17.067-7.641-17.067-17.067v-256c0-9.426 7.641-17.067 17.067-17.067h102.835c-.154 2.842-.435 5.649-.435 8.533s.282 5.692.435 8.533h-94.302c-4.713 0-8.533 3.821-8.533 8.533v238.933c0 4.713 3.821 8.533 8.533 8.533h238.934c4.713 0 8.533-3.82 8.533-8.533v-94.302c2.842.154 5.649.435 8.533.435s5.692-.282 8.533-.435v102.837zm42.666-34.134c4.713 0 8.533 3.82 8.533 8.533s-3.821 8.533-8.533 8.533h-25.6v-17.067h25.6zm0-51.2h-25.6v-17.067h25.6c4.713 0 8.533 3.82 8.533 8.533s-3.82 8.534-8.533 8.534zm-51.2-34.133c-80.118 0-145.067-64.949-145.067-145.067s64.949-145.066 145.067-145.066 145.067 64.949 145.067 145.067c-.089 80.08-64.986 144.977-145.067 145.066z"/><path id="Shape_447_" d="m424.663 120.772c6.647-9.739 11.884-20.368 15.556-31.573 2.275-6.779.683-14.259-4.156-19.524-10.69-11.563-23.735-20.699-38.255-26.795-7.845-3.836-16.212-6.495-24.832-7.893-6.329-.854-12.69 1.328-17.161 5.888-4.591 4.623-6.729 11.143-5.769 17.587.86 6.062 1.336 12.173 1.425 18.295-5.13-10.602-11.707-20.441-19.541-29.235-4.757-5.326-12.003-7.694-18.987-6.204-15.388 3.525-29.866 10.241-42.496 19.712-7.129 4.962-13.546 10.877-19.072 17.579-3.913 5.113-5.2 11.765-3.478 17.968 1.722 6.204 6.254 11.24 12.242 13.605 5.702 2.289 11.251 4.939 16.614 7.936-11.827-.872-23.717-.111-35.337 2.261-6.904 1.651-12.461 6.759-14.686 13.5-4.61 15.047-5.991 30.898-4.053 46.515.626 8.612 2.533 17.082 5.658 25.131 2.323 6.024 7.405 10.56 13.653 12.186 6.271 1.649 12.953.231 18.014-3.823 4.849-3.777 9.93-7.246 15.215-10.385-6.647 9.739-11.884 20.368-15.556 31.573-2.275 6.779-.683 14.259 4.156 19.524 10.69 11.563 23.735 20.699 38.255 26.795 7.843 3.831 16.207 6.487 24.823 7.885 6.325.816 12.669-1.361 17.161-5.888 4.591-4.623 6.729-11.143 5.769-17.587-.862-6.062-1.335-12.173-1.417-18.295 5.124 10.603 11.698 20.443 19.533 29.235 4.76 5.321 12.003 7.688 18.987 6.204 15.388-3.525 29.866-10.241 42.496-19.712 7.129-4.962 13.546-10.877 19.072-17.579 3.913-5.113 5.2-11.765 3.478-17.968-1.722-6.204-6.254-11.24-12.242-13.605-5.741-2.303-11.328-4.974-16.725-7.996 3.183.222 6.357.418 9.515.418 8.711.018 17.401-.86 25.933-2.62 6.902-1.649 12.459-6.754 14.686-13.491 4.611-15.05 5.993-30.903 4.053-46.524-.626-8.612-2.533-17.082-5.658-25.131-2.323-6.024-7.405-10.56-13.653-12.186-6.271-1.676-12.965-.256-18.014 3.823-4.846 3.781-9.925 7.252-15.206 10.394zm-96.913 54.161c-7.057-12.247-2.852-27.896 9.393-34.957s27.895-2.862 34.961 9.38 2.873 27.894-9.367 34.964c-5.883 3.399-12.876 4.319-19.439 2.558-6.563-1.76-12.156-6.058-15.548-11.945zm40.106-122.078c.724-.759 1.771-1.118 2.807-.964 6.956 1.186 13.702 3.376 20.028 6.502 12.402 5.135 23.548 12.889 32.674 22.733.684.757.9 1.827.563 2.79-7.277 20.848-20.02 39.359-36.898 53.598-.555.478-1.067.853-1.604 1.331-4.825-7.42-11.87-13.127-20.13-16.307-.29-2.202-.64-4.326-1.024-6.374 4.801-19.691 5.708-40.13 2.671-60.169-.186-1.141.174-2.304.973-3.14zm-103.543 39.109c-.294-.987-.107-2.055.503-2.884 4.542-5.416 9.788-10.2 15.599-14.225 10.681-8.067 22.938-13.8 35.977-16.828 1.016-.24 2.082.086 2.79.853 14.435 16.771 24.114 37.102 28.032 58.88.128.631.222 1.314.333 1.954-8.935.236-17.519 3.528-24.32 9.327-2.082-.853-4.07-1.596-5.973-2.261-14.658-14.049-31.944-25.069-50.867-32.427-1.034-.419-1.804-1.307-2.074-2.389zm-14.976 108.569c-.84.707-1.978.946-3.031.635s-1.879-1.129-2.2-2.179c-2.512-6.515-4.017-13.375-4.463-20.343-1.667-13.246-.548-26.695 3.285-39.484.32-1.031 1.133-1.834 2.167-2.142 21.761-4.08 44.217-2.253 65.033 5.291.546.179 1.152.418 1.707.623-1.312 2.598-2.355 5.323-3.115 8.132-1.523 5.76-1.814 11.776-.853 17.655-1.596 1.229-3.234 2.56-4.89 3.977-19.516 5.71-37.735 15.164-53.64 27.835zm82.62 70.827c-.721.762-1.77 1.123-2.807.964-6.956-1.186-13.702-3.376-20.028-6.502-12.402-5.135-23.548-12.889-32.674-22.733-.684-.757-.9-1.827-.563-2.79 7.277-20.848 20.02-39.359 36.898-53.598.555-.478 1.067-.853 1.604-1.331 4.833 7.449 11.901 13.175 20.19 16.358.29 2.202.64 4.326 1.024 6.374-4.801 19.691-5.708 40.13-2.671 60.169.186 1.141-.174 2.304-.973 3.14zm103.603-39.108c.294.987.107 2.055-.504 2.884-4.542 5.416-9.788 10.2-15.599 14.225-10.677 8.085-22.934 13.835-35.977 16.879-1.016.229-2.077-.096-2.79-.853-14.435-16.771-24.114-37.102-28.032-58.88-.119-.597-.205-1.246-.316-1.852 8.931-.318 17.494-3.64 24.303-9.429 2.082.853 4.07 1.596 5.973 2.261 14.654 14.065 31.94 25.099 50.867 32.469 1.023.411 1.792 1.281 2.074 2.347v-.051zm17.962-109.227c1.068.309 1.911 1.132 2.244 2.193 2.513 6.518 4.017 13.381 4.463 20.352 1.666 13.244.547 26.689-3.285 39.475-.32 1.031-1.133 1.834-2.167 2.142-21.761 4.08-44.217 2.253-65.033-5.291-.546-.179-1.152-.418-1.707-.623 1.312-2.598 2.355-5.323 3.115-8.132 1.523-5.76 1.814-11.776.853-17.655 1.596-1.229 3.234-2.56 4.89-3.977 19.512-5.693 37.731-15.126 53.641-27.776.829-.693 1.941-.944 2.987-.674v-.034z"/><circle id="Oval_106_" cx="349.936" cy="162.133" r="8.533"/></g></g></g></svg>