<svg id="Icons" height="512" viewBox="0 0 74 74" width="512" xmlns="http://www.w3.org/2000/svg"><path d="m60.676 64.9h-47.352a4.233 4.233 0 0 1 -4.224-4.224v-47.352a4.233 4.233 0 0 1 4.224-4.224h47.352a4.233 4.233 0 0 1 4.224 4.224v47.352a4.233 4.233 0 0 1 -4.224 4.224zm-47.352-53.8a2.231 2.231 0 0 0 -2.224 2.224v47.352a2.231 2.231 0 0 0 2.224 2.224h47.352a2.231 2.231 0 0 0 2.224-2.224v-47.352a2.231 2.231 0 0 0 -2.224-2.224z"/><path d="m57.37 33.94a1 1 0 0 1 -1-1v-2.93a1 1 0 1 1 2 0v2.93a1 1 0 0 1 -1 1z"/><path d="m56.29 58.37h-38.58a2.082 2.082 0 0 1 -2.08-2.08v-38.58a2.082 2.082 0 0 1 2.08-2.08h38.58a2.082 2.082 0 0 1 2.08 2.08v5.29a1 1 0 1 1 -2 0v-5.29a.076.076 0 0 0 -.08-.08h-38.58a.076.076 0 0 0 -.08.08v38.58a.076.076 0 0 0 .08.08h38.58a.076.076 0 0 0 .08-.08v-6.42a1 1 0 0 1 2 0v6.42a2.082 2.082 0 0 1 -2.08 2.08z"/><path d="m57.37 43.88a1 1 0 0 1 -1-1v-2.94a1 1 0 0 1 2 0v2.94a1 1 0 0 1 -1 1z"/><path d="m53.143 11.1a1 1 0 0 1 -1-1v-7.1a1 1 0 0 1 2 0v7.1a1 1 0 0 1 -1 1z"/><path d="m45.071 11.1a1 1 0 0 1 -1-1v-7.1a1 1 0 0 1 2 0v7.1a1 1 0 0 1 -1 1z"/><path d="m37 11.1a1 1 0 0 1 -1-1v-7.1a1 1 0 0 1 2 0v7.1a1 1 0 0 1 -1 1z"/><path d="m28.929 11.1a1 1 0 0 1 -1-1v-7.1a1 1 0 0 1 2 0v7.1a1 1 0 0 1 -1 1z"/><path d="m20.857 11.1a1 1 0 0 1 -1-1v-7.1a1 1 0 0 1 2 0v7.1a1 1 0 0 1 -1 1z"/><path d="m53.143 72a1 1 0 0 1 -1-1v-7.1a1 1 0 1 1 2 0v7.1a1 1 0 0 1 -1 1z"/><path d="m45.071 72a1 1 0 0 1 -1-1v-7.1a1 1 0 1 1 2 0v7.1a1 1 0 0 1 -1 1z"/><path d="m37 72a1 1 0 0 1 -1-1v-7.1a1 1 0 1 1 2 0v7.1a1 1 0 0 1 -1 1z"/><path d="m28.929 72a1 1 0 0 1 -1-1v-7.1a1 1 0 0 1 2 0v7.1a1 1 0 0 1 -1 1z"/><path d="m20.857 72a1 1 0 0 1 -1-1v-7.1a1 1 0 1 1 2 0v7.1a1 1 0 0 1 -1 1z"/><path d="m71 54.143h-7.1a1 1 0 1 1 0-2h7.1a1 1 0 0 1 0 2z"/><path d="m71 46.071h-7.1a1 1 0 1 1 0-2h7.1a1 1 0 0 1 0 2z"/><path d="m71 38h-7.1a1 1 0 1 1 0-2h7.1a1 1 0 0 1 0 2z"/><path d="m71 29.929h-7.1a1 1 0 0 1 0-2h7.1a1 1 0 0 1 0 2z"/><path d="m71 21.857h-7.1a1 1 0 1 1 0-2h7.1a1 1 0 0 1 0 2z"/><path d="m10.1 54.143h-7.1a1 1 0 0 1 0-2h7.1a1 1 0 1 1 0 2z"/><path d="m10.1 46.071h-7.1a1 1 0 0 1 0-2h7.1a1 1 0 1 1 0 2z"/><path d="m10.1 38h-7.1a1 1 0 0 1 0-2h7.1a1 1 0 1 1 0 2z"/><path d="m10.1 29.929h-7.1a1 1 0 0 1 0-2h7.1a1 1 0 0 1 0 2z"/><path d="m10.1 21.857h-7.1a1 1 0 0 1 0-2h7.1a1 1 0 0 1 0 2z"/></svg>