<?xml version="1.0" encoding="iso-8859-1"?>
<!-- Generator: Adobe Illustrator 19.0.0, SVG Export Plug-In . SVG Version: 6.00 Build 0)  -->
<svg version="1.1" id="Capa_1" xmlns="http://www.w3.org/2000/svg" xmlns:xlink="http://www.w3.org/1999/xlink" x="0px" y="0px"
	 viewBox="0 0 461.322 461.322" style="enable-background:new 0 0 461.322 461.322;" xml:space="preserve">
<g>
	
		<linearGradient id="SVGID_1_" gradientUnits="userSpaceOnUse" x1="-16.1711" y1="575.868" x2="-16.1711" y2="491.988" gradientTransform="matrix(5.2245 0 0 -5.2245 315.1469 3030.5593)">
		<stop  offset="0" style="stop-color:#00EFD1"/>
		<stop  offset="1" style="stop-color:#00ACEA"/>
	</linearGradient>
	<path style="fill:url(#SVGID_1_);" d="M445.127,45.453H15.673C6.792,45.453,0,52.245,0,61.127v339.069
		c0,8.882,6.792,15.673,15.673,15.673h429.976c8.882,0,15.673-6.792,15.673-15.673V61.127
		C460.8,52.767,454.008,45.453,445.127,45.453z M429.453,76.8v133.224L265.404,307.2l-110.759-99.788
		c-5.224-4.702-13.584-5.224-19.331-1.045L31.347,277.42V76.8H429.453z M31.347,315.559l111.804-76.8L305.11,384.522H31.347V315.559
		z M351.608,385.045l-61.649-55.38l139.494-82.547v137.927H351.608z"/>
	
		<linearGradient id="SVGID_2_" gradientUnits="userSpaceOnUse" x1="-8.6211" y1="575.868" x2="-8.6211" y2="491.988" gradientTransform="matrix(5.2245 0 0 -5.2245 315.1469 3030.5593)">
		<stop  offset="0" style="stop-color:#00EFD1"/>
		<stop  offset="1" style="stop-color:#00ACEA"/>
	</linearGradient>
	<path style="fill:url(#SVGID_2_);" d="M270.106,227.265c30.302,0,54.857-24.555,54.857-54.857s-24.555-54.857-54.857-54.857
		s-54.857,24.555-54.857,54.857S240.327,227.265,270.106,227.265z M270.106,148.898c13.061,0,23.51,10.449,23.51,23.51
		c0,13.061-10.449,23.51-23.51,23.51s-23.51-10.449-23.51-23.51C246.596,159.347,257.567,148.898,270.106,148.898z"/>
</g>
<g>
</g>
<g>
</g>
<g>
</g>
<g>
</g>
<g>
</g>
<g>
</g>
<g>
</g>
<g>
</g>
<g>
</g>
<g>
</g>
<g>
</g>
<g>
</g>
<g>
</g>
<g>
</g>
<g>
</g>
</svg>
