<svg height="512" viewBox="0 0 128 128" width="512" xmlns="http://www.w3.org/2000/svg"><g><path d="m112.654 4.75h-97.308a1.751 1.751 0 0 0 -1.746 1.75v115a1.751 1.751 0 0 0 1.75 1.75h97.308a1.751 1.751 0 0 0 1.75-1.75v-115a1.751 1.751 0 0 0 -1.754-1.75zm-1.75 115h-93.804v-111.5h93.8z"/><path d="m27.346 23.25a4.75 4.75 0 1 0 -4.746-4.75 4.756 4.756 0 0 0 4.746 4.75zm0-6a1.25 1.25 0 1 1 -1.246 1.25 1.251 1.251 0 0 1 1.246-1.25z"/><path d="m100.654 23.25a4.75 4.75 0 1 0 -4.754-4.75 4.756 4.756 0 0 0 4.754 4.75zm0-6a1.25 1.25 0 1 1 -1.254 1.25 1.252 1.252 0 0 1 1.254-1.25z"/><path d="m27.346 114.25a4.75 4.75 0 1 0 -4.75-4.75 4.756 4.756 0 0 0 4.75 4.75zm0-6a1.25 1.25 0 1 1 -1.25 1.25 1.251 1.251 0 0 1 1.25-1.25z"/><path d="m100.654 114.25a4.75 4.75 0 1 0 -4.75-4.75 4.756 4.756 0 0 0 4.75 4.75zm0-6a1.25 1.25 0 1 1 -1.25 1.25 1.252 1.252 0 0 1 1.25-1.25z"/><path d="m50.122 80.072-4.065 2.686a6.751 6.751 0 0 0 -1.051 10.405l.766.766a6.718 6.718 0 0 0 4.765 1.978q.342 0 .687-.034a6.729 6.729 0 0 0 4.953-3l6.265-9.473c.494.026 1.006.043 1.558.043a30.572 30.572 0 1 0 -13.878-3.368zm3.135 10.876a3.25 3.25 0 0 1 -5.01.506l-.767-.766a3.251 3.251 0 0 1 .507-5.01l6.707-4.432c.021-.014.043-.027.064-.042l8.765-5.792zm10.743-65.008a27 27 0 0 1 .739 53.981l6.428-9.728a1.75 1.75 0 0 0 -2.425-2.425l-15.197 10.042a26.986 26.986 0 0 1 10.455-51.87z"/><path d="m64 65.692a12.75 12.75 0 1 0 -12.75-12.75 12.764 12.764 0 0 0 12.75 12.75zm0-22a9.25 9.25 0 1 1 -9.25 9.25 9.26 9.26 0 0 1 9.25-9.25z"/><path d="m86.25 107.75h-44.5a1.75 1.75 0 0 0 0 3.5h44.5a1.75 1.75 0 0 0 0-3.5z"/></g></svg>