<svg id="Layer_1" enable-background="new 0 0 128 128" height="512" viewBox="0 0 128 128" width="512" xmlns="http://www.w3.org/2000/svg"><path d="m122.501 28.248c0-4.88-3.97-8.85-8.849-8.85h-95.425c-4.88 0-8.85 3.97-8.85 8.85v56.049c0 .004-.002.007-.002.012v6.854c0 3.14 1.697 6.07 4.423 7.643 1.344.789 2.875 1.206 4.425 1.206h34.74v2.028c0 1.859-.548 3.631-1.539 5.137h-3.849c-1.462 0-2.651 1.189-2.651 2.65s1.189 2.65 2.651 2.65h36.727c1.461 0 2.65-1.189 2.65-2.65s-1.189-2.65-2.65-2.65h-3.849c-.991-1.506-1.539-3.278-1.539-5.137v-2.028h34.735c4.879 0 8.848-3.97 8.848-8.849v-6.608c0-.005.003-.009.003-.014v-56.293z" fill="#e6e7e8"/><path d="m76.13 104.301c-1.283-1.752-2.008-3.878-2.008-6.096v-2.985h-24.034v2.984c0 2.218-.725 4.344-2.008 6.096h28.05z" fill="#d4fbff"/><path d="m80.468 104.301h-36.727c-.93 0-1.692.761-1.692 1.692s.761 1.692 1.692 1.692h36.727c.93 0 1.692-.761 1.692-1.692s-.761-1.692-1.692-1.692z" fill="#d4fbff"/><path d="m117.709 80.47v6.86c0 4.34-3.55 7.89-7.89 7.89h-95.43c-4.34 0-7.89-3.55-7.89-7.89v-6.86z" fill="#fff"/><path d="m117.709 80.47v6.86c0 4.34-3.55 7.89-7.89 7.89h-92.43c-4.34 0-7.89-3.55-7.89-7.89v-6.86z" fill="#d4fbff"/><path d="m117.708 80.47v-56.057c0-4.34-3.551-7.891-7.891-7.891h-95.425c-4.34 0-7.891 3.551-7.891 7.891v56.057z" fill="#fff"/><path d="m117.708 80.47v-56.057c0-4.34-3.551-7.891-7.891-7.891h-92.425c-4.34 0-7.891 3.551-7.891 7.891v56.057z" fill="#0089ef"/><path d="m12.728 22.39h98.754v52.449h-98.754z" fill="#6dc9f7"/><path d="m70.083 47.408c0-2.4 1.444-4.461 3.511-5.365-1.902-2.534-4.726-2.725-4.726-2.725s-2.494-.135-5.662 1.069c-.345.131-.727.131-1.072 0-3.168-1.204-5.662-1.069-5.662-1.069s-4.31.29-5.867 4.93-.297 6.924 1.038 10.381c1.334 3.458 3.929 5.956 5.56 6.261 1.231.23 3.782-.61 4.957-1.036.33-.12.691-.12 1.021 0 1.175.425 3.726 1.266 4.957 1.036 1.631-.305 4.225-2.803 5.56-6.261.215-.557.428-1.083.627-1.594-2.449-.701-4.242-2.954-4.242-5.627z" fill="#d4fbff"/><path d="m62.985 39.115s5.216-.059 5.856-6.647l-.004-.004c-6.449 1.491-5.852 6.651-5.852 6.651z" fill="#d4fbff"/><g fill="#3a2c60"><path d="m118.708 24.413c0-4.902-3.988-8.891-8.891-8.891h-95.425c-4.902 0-8.891 3.988-8.891 8.891v56.048c0 .004-.002.008-.002.012v6.854c0 3.154 1.705 6.098 4.444 7.679 1.351.793 2.889 1.212 4.446 1.212h34.699v1.986c0 1.817-.534 3.567-1.539 5.096h-3.808c-1.484 0-2.692 1.207-2.692 2.691s1.208 2.692 2.692 2.692h36.727c1.484 0 2.692-1.208 2.692-2.692s-1.208-2.691-2.692-2.691h-3.807c-1.005-1.53-1.539-3.279-1.539-5.096v-1.986h10.86c.553 0 1-.447 1-1s-.447-1-1-1h-71.593c-1.202 0-2.39-.324-3.44-.94-2.128-1.229-3.45-3.509-3.45-5.95v-5.854h109.207v5.854c0 3.8-3.091 6.891-6.89 6.891h-9.5c-.553 0-1 .447-1 1s.447 1 1 1h9.5c4.901 0 8.89-3.988 8.89-8.891v-6.608c0-.005.003-.009.003-.015v-56.292zm-37.548 81.579c0 .375-.317.692-.692.692h-36.727c-.375 0-.692-.317-.692-.692s.317-.691.692-.691h4.338 28.05 4.338c.376 0 .693.316.693.691zm-31.294-2.691c.803-1.578 1.222-3.311 1.222-5.096v-1.984h22.033v1.984c0 1.785.419 3.518 1.222 5.096zm-42.365-23.827v-55.061c0-3.799 3.091-6.891 6.891-6.891h95.426c3.8 0 6.891 3.091 6.891 6.891v55.061z"/><path d="m96.315 94.219h-6c-.553 0-1 .447-1 1s.447 1 1 1h6c.553 0 1-.447 1-1s-.447-1-1-1z"/></g></svg>