<?xml version="1.0"?>
<svg xmlns="http://www.w3.org/2000/svg" width="512" height="512" viewBox="0 0 128 128"><g><path d="M18.5,31.25a4.75,4.75,0,1,0-4.75-4.75A4.756,4.756,0,0,0,18.5,31.25Zm0-6a1.25,1.25,0,1,1-1.25,1.25A1.252,1.252,0,0,1,18.5,25.25Z"/><path d="M104.75,26.5a4.75,4.75,0,1,0,4.75-4.75A4.756,4.756,0,0,0,104.75,26.5Zm4.75-1.25a1.25,1.25,0,1,1-1.25,1.25A1.252,1.252,0,0,1,109.5,25.25Z"/><path d="M109.5,104.75a4.75,4.75,0,1,0,4.75,4.75A4.756,4.756,0,0,0,109.5,104.75Zm0,6a1.25,1.25,0,1,1,1.25-1.25A1.252,1.252,0,0,1,109.5,110.75Z"/><path d="M18.5,104.75a4.75,4.75,0,1,0,4.75,4.75A4.756,4.756,0,0,0,18.5,104.75Zm0,6a1.25,1.25,0,1,1,1.25-1.25A1.252,1.252,0,0,1,18.5,110.75Z"/><path d="M70.62,59.382V64a1.75,1.75,0,0,0,3.5,0V59.382h5.071a1.75,1.75,0,0,0,1.75-1.75V52.56H85.56a1.75,1.75,0,0,0,0-3.5H80.941V44.19H85.56a1.75,1.75,0,0,0,0-3.5H80.941V35.82H85.56a1.75,1.75,0,0,0,0-3.5H80.941V27.25a1.75,1.75,0,0,0-1.75-1.75H74.12V20.88a1.75,1.75,0,1,0-3.5,0V25.5H65.75V20.88a1.75,1.75,0,1,0-3.5,0V25.5H57.38V20.88a1.75,1.75,0,0,0-3.5,0V25.5H48.809a1.75,1.75,0,0,0-1.75,1.75v5.07H42.44a1.75,1.75,0,0,0,0,3.5h4.619v4.87H42.44a1.75,1.75,0,0,0,0,3.5h4.619v4.87H42.44a1.75,1.75,0,0,0,0,3.5h4.619v5.072a1.75,1.75,0,0,0,1.75,1.75H53.88V64a1.75,1.75,0,0,0,3.5,0V59.382h4.87V64a1.75,1.75,0,0,0,3.5,0V59.382ZM50.559,29H77.441V55.882H50.559Z"/><path d="M121.5,12.75H108.25V6.5a1.75,1.75,0,0,0-1.75-1.75h-12A1.75,1.75,0,0,0,92.75,6.5v6.25H82.443V6.5a1.75,1.75,0,0,0-1.75-1.75h-12a1.751,1.751,0,0,0-1.75,1.75v6.25H6.5A1.75,1.75,0,0,0,4.75,14.5v107a1.75,1.75,0,0,0,1.75,1.75h115a1.75,1.75,0,0,0,1.75-1.75V14.5A1.75,1.75,0,0,0,121.5,12.75ZM96.25,8.25h8.5v4.5h-8.5Zm-25.807,0h8.5v4.5h-8.5Zm49.307,111.5H8.25V16.25h111.5Z"/><path d="M105.87,93.94a1.75,1.75,0,0,0-1.75-1.75h-1.75v-4h1.75a1.75,1.75,0,0,0,0-3.5h-1.75v-4h1.75a1.75,1.75,0,0,0,0-3.5h-1.75V73.75A1.75,1.75,0,0,0,100.62,72H71.38a1.75,1.75,0,0,0-1.75,1.75v3.44H67.88a1.75,1.75,0,0,0,0,3.5h1.75v4H67.88a1.75,1.75,0,0,0,0,3.5h1.75v4H67.88a1.75,1.75,0,0,0,0,3.5h1.75v3.43a1.75,1.75,0,0,0,1.75,1.75h29.24a1.75,1.75,0,0,0,1.75-1.75V95.69h1.75A1.75,1.75,0,0,0,105.87,93.94Zm-7,3.43H73.13V75.5H98.87Z"/><path d="M60.12,92.19H58.37V90.25a1.75,1.75,0,0,0-1.75-1.75H27.38a1.75,1.75,0,0,0-1.75,1.75v1.94H23.88a1.75,1.75,0,1,0,0,3.5h1.75v1.93a1.75,1.75,0,0,0,1.75,1.75H56.62a1.75,1.75,0,0,0,1.75-1.75V95.69h1.75a1.75,1.75,0,1,0,0-3.5Zm-5.25,3.68H29.13V92H54.87Z"/><path d="M60.12,77.19H58.37V75.25a1.75,1.75,0,0,0-1.75-1.75H27.38a1.75,1.75,0,0,0-1.75,1.75v1.94H23.88a1.75,1.75,0,1,0,0,3.5h1.75v1.93a1.75,1.75,0,0,0,1.75,1.75H56.62a1.75,1.75,0,0,0,1.75-1.75V80.69h1.75a1.75,1.75,0,1,0,0-3.5Zm-5.25,3.68H29.13V77H54.87Z"/></g></svg>
