<svg id="Capa_1" enable-background="new 0 0 512 512" height="512" viewBox="0 0 512 512" width="512" xmlns="http://www.w3.org/2000/svg"><g><path d="m391 496.5c0 8.28-6.72 15-15 15h-240c-8.28 0-15-6.72-15-15s6.72-15 15-15h20c13.79 0 25-11.21 25-25v-70h150v70c0 13.79 11.21 25 25 25h20c8.28 0 15 6.72 15 15z" fill="#c4eaf5"/><path d="m391 496.5c0 8.28-6.72 15-15 15h-120v-125h75v70c0 13.79 11.21 25 25 25h20c8.28 0 15 6.72 15 15z" fill="#98cee6"/><path d="m0 331.5v45c0 8.284 6.716 15 15 15h482c8.284 0 15-6.716 15-15v-45l-15-15h-482z" fill="#eef9ff"/><path d="m512 331.5v45c0 8.28-6.72 15-15 15h-241v-75h241z" fill="#c4eaf5"/><path d="m512 331.5v-316c0-8.284-6.716-15-15-15h-482c-8.284 0-15 6.716-15 15v316z" fill="#093968"/><path d="m512 15.5v316h-256v-331h241c8.28 0 15 6.72 15 15z" fill="#001e49"/><path d="m30 30.5h452v271h-452z" fill="#fff797"/><path d="m256 30.5h226v271h-226z" fill="#fee07d"/><circle cx="211" cy="256.5" fill="#3187ce" r="15"/><circle cx="301" cy="256.5" fill="#1c77c3" r="15"/><path d="m185.568 73.765c-1.324-7.101-7.522-12.25-14.746-12.25h-34.822c-8.284 0-15 6.716-15 15s6.716 15 15 15h22.362l2.795 14.984 15.397 4 15.121-4z" fill="#c4eaf5"/><path d="m324 106.5h-18.542c-14.728 0-130.107 0-144.301 0l20.098 107.75c1.324 7.101 7.522 12.25 14.746 12.25h112.873c7.325 0 13.579-5.29 14.792-12.514l15.127-90c1.534-9.131-5.506-17.486-14.793-17.486z" fill="#5ca7e5"/><path d="m338.79 123.99-15.12 90c-1.22 7.22-7.47 12.51-14.8 12.51h-52.87v-120h68c9.29 0 16.33 8.36 14.79 17.49z" fill="#3187ce"/></g></svg>