<svg id="Capa_1" enable-background="new 0 0 512 512" height="512" viewBox="0 0 512 512" width="512" xmlns="http://www.w3.org/2000/svg"><g><g id="Page-1_7_"><g id="_x30_08---Power-Supply"><path id="Shape_29_" d="m25.6 512h460.8c14.138 0 25.6-11.461 25.6-25.6v-273.067c0-14.138-11.461-25.6-25.6-25.6h-341.333v-68.267h187.733c0 9.426 7.641 17.067 17.067 17.067h18.637c3.603 10.192 13.22 17.022 24.03 17.067h42.666c9.426 0 17.067-7.641 17.067-17.067v-119.466c0-9.426-7.641-17.067-17.067-17.067h-42.667c-10.81.045-20.427 6.875-24.03 17.067h-18.637c-9.426 0-17.067 7.641-17.067 17.067h-187.732c-47.107.051-85.282 38.226-85.334 85.333v68.267h-34.133c-14.138 0-25.6 11.462-25.6 25.6v273.066c0 14.139 11.462 25.6 25.6 25.6zm119.467-409.6c-9.426 0-17.067 7.641-17.067 17.067v68.267h-17.067v-68.267c0-18.851 15.282-34.133 34.133-34.133h187.734v17.066zm247.466-85.333h42.667v17.067h-17.067c-4.713 0-8.533 3.821-8.533 8.533s3.82 8.533 8.533 8.533h17.067v17.067h-17.067c-4.713 0-8.533 3.821-8.533 8.533 0 4.713 3.82 8.533 8.533 8.533h17.067v17.067h-17.067c-4.713 0-8.533 3.821-8.533 8.533 0 4.713 3.82 8.533 8.533 8.533h17.067v17.067h-42.667c-4.713 0-8.533-3.821-8.533-8.533v-102.4c0-4.713 3.821-8.533 8.533-8.533zm-42.666 17.066h17.067v85.333h-17.067zm-273.067 85.334c.042-37.685 30.582-68.224 68.267-68.267h187.733v17.067h-187.733c-28.265.028-51.172 22.935-51.2 51.2v68.267h-17.067zm-59.733 93.866c0-4.713 3.821-8.533 8.533-8.533h460.8c4.713 0 8.533 3.82 8.533 8.533v273.067c0 4.713-3.82 8.533-8.533 8.533h-460.8c-4.713 0-8.533-3.82-8.533-8.533z"/><circle id="Oval_12_" cx="42.667" cy="230.4" r="8.533"/><circle id="Oval_11_" cx="42.667" cy="469.333" r="8.533"/><circle id="Oval_10_" cx="469.333" cy="469.333" r="8.533"/><circle id="Oval_9_" cx="469.333" cy="230.4" r="8.533"/><path id="Shape_28_" d="m74.453 265.719c-42.381 48.094-42.381 120.201 0 168.294l-12.22 12.22c-2.218 2.143-3.108 5.315-2.327 8.299s3.111 5.314 6.094 6.094c2.984.781 6.156-.109 8.299-2.327l12.22-12.22c48.094 42.381 120.201 42.381 168.294 0l12.22 12.22c3.348 3.234 8.671 3.188 11.962-.104 3.292-3.292 3.338-8.614.104-11.962l-12.22-12.22c42.381-48.094 42.381-120.201 0-168.294l12.22-12.22c3.234-3.348 3.188-8.671-.104-11.962-3.292-3.292-8.614-3.338-11.962-.104l-12.22 12.22c-48.094-42.381-120.201-42.381-168.294 0l-12.22-12.22c-2.142-2.218-5.315-3.108-8.299-2.327s-5.313 3.111-6.094 6.094.109 6.156 2.327 8.299zm-14.72 84.148c-.006-26.462 9.501-52.045 26.786-72.081l12.058 12.058c-29.035 34.749-29.035 85.298 0 120.047l-12.058 12.058c-17.285-20.038-26.792-45.62-26.786-72.082zm68.267 0c.002-8.36 2.475-16.534 7.108-23.492l12.518 12.527c-3.425 6.909-3.425 15.022 0 21.931l-12.526 12.526c-4.631-6.96-7.101-15.133-7.1-23.492zm85.333 0c-.002 8.36-2.475 16.533-7.108 23.492l-12.518-12.527c3.425-6.909 3.425-15.022 0-21.931l12.527-12.527c4.63 6.96 7.1 15.133 7.099 23.493zm-48.64-5.974.06-.094c3.291-3.254 8.587-3.254 11.878 0l.06.094.094.06c3.254 3.291 3.254 8.587 0 11.878l-.145.009-.06.094c-3.291 3.254-8.587 3.254-11.878 0l-.009-.094-.094-.06c-3.253-3.291-3.253-8.587 0-11.878zm-4.966 29.014c6.909 3.425 15.022 3.425 21.931 0l12.527 12.527c-14.228 9.477-32.757 9.477-46.985 0zm21.931-46.08c-6.909-3.425-15.022-3.425-21.931 0l-12.527-12.527c14.228-9.477 32.757-9.477 46.985 0zm-46.669 70.826c21.13 15.952 50.277 15.952 71.407 0l12.177 12.177c-27.966 22.471-67.795 22.471-95.761 0zm83.464-12.083c15.952-21.13 15.952-50.277 0-71.407l12.177-12.177c22.471 27.966 22.471 67.795 0 95.761zm-12.083-83.49c-21.13-15.952-50.277-15.952-71.407 0l-12.177-12.177c27.966-22.471 67.795-22.471 95.761 0zm-83.49 12.083c-15.952 21.13-15.952 50.277 0 71.407l-12.177 12.177c-22.471-27.966-22.471-67.795 0-95.761zm47.787 146.637c-26.462.006-52.045-9.501-72.081-26.786l12.058-12.058c34.749 29.035 85.298 29.035 120.047 0l12.058 12.058c-20.038 17.285-45.62 26.792-72.082 26.786zm110.933-110.933c.006 26.462-9.501 52.045-26.786 72.081l-12.058-12.058c29.035-34.749 29.035-85.298 0-120.047l12.058-12.058c17.285 20.037 26.792 45.62 26.786 72.082zm-110.933-110.934c26.462-.006 52.045 9.501 72.081 26.786l-12.058 12.058c-34.749-29.035-85.298-29.035-120.047 0l-12.058-12.058c20.037-17.285 45.62-26.792 72.082-26.786z"/><path id="Shape_27_" d="m342.187 463.206c3.244 3.895 8.055 6.141 13.124 6.127h74.445c5.06-.002 9.858-2.25 13.099-6.135l22.502-26.974c2.566-3.068 3.974-6.94 3.977-10.94v-49.818c0-9.426-7.641-17.067-17.067-17.067h-119.467c-9.426 0-17.067 7.641-17.067 17.067v49.818c.002 3.996 1.406 7.864 3.968 10.931zm-9.387-87.739h119.467v49.818l-22.511 26.982h-74.445l-22.511-26.983z"/><path id="Shape_26_" d="m366.933 409.6v-17.067c0-4.713-3.82-8.533-8.533-8.533s-8.533 3.82-8.533 8.533v17.067c0 4.713 3.82 8.533 8.533 8.533s8.533-3.82 8.533-8.533z"/><path id="Shape_25_" d="m426.667 418.133c4.713 0 8.533-3.821 8.533-8.533v-17.067c0-4.713-3.82-8.533-8.533-8.533s-8.533 3.82-8.533 8.533v17.067c-.001 4.713 3.82 8.533 8.533 8.533z"/><path id="Shape_24_" d="m392.533 443.733c4.713 0 8.533-3.821 8.533-8.533v-17.067c0-4.713-3.82-8.533-8.533-8.533s-8.533 3.82-8.533 8.533v17.067c0 4.713 3.821 8.533 8.533 8.533z"/><path id="Shape_23_" d="m341.333 332.8h102.4c14.138 0 25.6-11.462 25.6-25.6v-34.133c0-14.138-11.462-25.6-25.6-25.6h-102.4c-14.138 0-25.6 11.462-25.6 25.6v34.133c0 14.139 11.462 25.6 25.6 25.6zm110.934-59.733v34.133c0 4.713-3.821 8.533-8.533 8.533h-8.534v-51.2h8.533c4.713 0 8.534 3.821 8.534 8.534zm-119.467 0c0-4.713 3.82-8.533 8.533-8.533h76.8v51.2h-76.8c-4.713 0-8.533-3.82-8.533-8.533z"/></g></g></g></svg>