<?xml version="1.0"?>
<svg xmlns="http://www.w3.org/2000/svg" viewBox="0 0 64 64" width="512" height="512"><g id="Outline"><g><path d="M12,21h6a1,1,0,0,0,1-1V14a1,1,0,0,0-1-1H12a1,1,0,0,0-1,1v6A1,1,0,0,0,12,21Zm1-6h4v4H13Z"/><path d="M41,21a1,1,0,0,0,1-1V14a1,1,0,0,0-1-1H35a1,1,0,0,0-1,1v6a1,1,0,0,0,1,1Zm-5-6h4v4H36Z"/><path d="M46,21h6a1,1,0,0,0,1-1V14a1,1,0,0,0-1-1H46a1,1,0,0,0-1,1v6A1,1,0,0,0,46,21Zm1-6h4v4H47Z"/><circle cx="57" cy="20" r="1"/><circle cx="7" cy="20" r="1"/><circle cx="44" cy="11" r="1"/><circle cx="32" cy="11" r="1"/><circle cx="20" cy="11" r="1"/><circle cx="54" cy="11" r="1"/><circle cx="10" cy="11" r="1"/><path d="M59,13h2a1,1,0,0,0,1-1V7a1,1,0,0,0-1-1H18a1,1,0,0,0,0,2H60v3H59a3,3,0,0,0,0,6h1v3a1,1,0,0,0,2,0V16a1,1,0,0,0-1-1H59a1,1,0,0,1,0-2Z"/><path d="M61,23a1,1,0,0,0-1,1v4H57V25a1,1,0,0,0-1-1H8a1,1,0,0,0-1,1v3H4V17H5a3,3,0,0,0,0-6H4V8H14a1,1,0,0,0,0-2H3A1,1,0,0,0,2,7v5a1,1,0,0,0,1,1H5a1,1,0,0,1,0,2H3a1,1,0,0,0-1,1V29a1,1,0,0,0,1,1H24a1,1,0,0,0,1-1V26h2v3a1,1,0,0,0,1,1H61a1,1,0,0,0,1-1V24A1,1,0,0,0,61,23Zm-6,5H53V26h2Zm-6-2h2v2H49Zm-2,2H45V26h2ZM35,26v2H33V26ZM19,26v2H17V26ZM9,28V26h2v2Zm4-2h2v2H13Zm10,2H21V26h2Zm6-2h2v2H29Zm8,2V26h2v2Zm4-2h2v2H41Z"/><path d="M25,15a1,1,0,0,0,0-2H23a1,1,0,0,0-1,1v6a1,1,0,0,0,1,1h6a1,1,0,0,0,1-1V14a1,1,0,0,0-2,0v5H24V15Z"/><path d="M12,49h6a1,1,0,0,0,1-1V42a1,1,0,0,0-1-1H12a1,1,0,0,0-1,1v6A1,1,0,0,0,12,49Zm1-6h4v4H13Z"/><path d="M41,49a1,1,0,0,0,1-1V42a1,1,0,0,0-1-1H35a1,1,0,0,0-1,1v6a1,1,0,0,0,1,1Zm-5-6h4v4H36Z"/><path d="M46,49h6a1,1,0,0,0,1-1V42a1,1,0,0,0-1-1H46a1,1,0,0,0-1,1v6A1,1,0,0,0,46,49Zm1-6h4v4H47Z"/><circle cx="57" cy="48" r="1"/><circle cx="7" cy="48" r="1"/><circle cx="44" cy="39" r="1"/><circle cx="32" cy="39" r="1"/><circle cx="20" cy="39" r="1"/><circle cx="54" cy="39" r="1"/><circle cx="10" cy="39" r="1"/><path d="M61,34H18a1,1,0,0,0,0,2H60v3H59a3,3,0,0,0,0,6h1v3a1,1,0,0,0,2,0V44a1,1,0,0,0-1-1H59a1,1,0,0,1,0-2h2a1,1,0,0,0,1-1V35A1,1,0,0,0,61,34Z"/><path d="M61,51a1,1,0,0,0-1,1v4H57V53a1,1,0,0,0-1-1H8a1,1,0,0,0-1,1v3H4V45H5a3,3,0,0,0,0-6H4V36H14a1,1,0,0,0,0-2H3a1,1,0,0,0-1,1v5a1,1,0,0,0,1,1H5a1,1,0,0,1,0,2H3a1,1,0,0,0-1,1V57a1,1,0,0,0,1,1H24a1,1,0,0,0,1-1V54h2v3a1,1,0,0,0,1,1H61a1,1,0,0,0,1-1V52A1,1,0,0,0,61,51Zm-6,5H53V54h2Zm-6-2h2v2H49Zm-2,2H45V54h2ZM35,54v2H33V54ZM19,54v2H17V54ZM9,56V54h2v2Zm4-2h2v2H13Zm10,2H21V54h2Zm6-2h2v2H29Zm8,2V54h2v2Zm4-2h2v2H41Z"/><path d="M25,43a1,1,0,0,0,0-2H23a1,1,0,0,0-1,1v6a1,1,0,0,0,1,1h6a1,1,0,0,0,1-1V42a1,1,0,0,0-2,0v5H24V43Z"/></g></g></svg>
