<svg id="Capa_1" enable-background="new 0 0 512 512" height="512" viewBox="0 0 512 512" width="512" xmlns="http://www.w3.org/2000/svg"><g><g><g><g><g><g><g><g><g><circle cx="256" cy="256" fill="#7584f2" r="256"/></g></g></g></g></g></g></g></g><path d="m512 256c0-7.754-.345-15.427-1.02-23.005l-115.987-115.988-287.28 282.231 109.903 109.903c12.521 1.883 25.339 2.859 38.384 2.859 141.385 0 256-114.615 256-256z" fill="#4855b7"/><g><g><path d="m152.162 243.471h90.587v142.147h-90.587z" fill="#fe6a16" transform="matrix(.707 .707 -.707 .707 280.25 -47.494)"/></g><g><path d="m142.339 307.773h142.147v45.455h-142.147z" fill="#f24500" transform="matrix(.707 -.707 .707 .707 -171.192 247.707)"/></g><g><path d="m87.17 348.104h90.587v62.865h-90.587z" fill="#414952" transform="matrix(.707 .707 -.707 .707 307.17 17.498)"/></g><g><path d="m116.988 372.765h62.865v45.456h-62.865z" fill="#23272b" transform="matrix(.707 -.707 .707 .707 -236.184 220.785)"/></g><g><circle cx="301.327" cy="210.673" fill="#fff" r="132.463"/></g><g><path d="m394.993 117.007c-.038-.038-.078-.075-.116-.113l-187.328 187.328c.038.039.075.078.113.116 51.73 51.73 135.601 51.73 187.331 0 51.729-51.73 51.729-135.601 0-187.331z" fill="#e9edf5"/></g><g><circle cx="301.327" cy="210.673" fill="#a3d4ff" r="89.488"/></g><g><path d="m364.487 147.284-126.549 126.549c.038.038.073.079.112.117 34.947 34.947 91.608 34.947 126.555 0s34.947-91.608 0-126.555c-.039-.038-.079-.073-.118-.111z" fill="#65b1fc"/></g></g></g></svg>